<svg aria-hidden="true" style="position: absolute; width: 0; height: 0; overflow: hidden;" version="1.1" xmlns="http://www.w3.org/2000/svg" xmlns:xlink="http://www.w3.org/1999/xlink">
<defs>
<symbol id="icon-x-mark" viewBox="0 0 32 32">
<path fill="#b91c1c" style="fill: var(--color1, #b91c1c); stroke: var(--color1, #b91c1c)" stroke="#b91c1c" stroke-linejoin="round" stroke-linecap="round" stroke-miterlimit="4" stroke-width="1" d="M7.293 7.293c0.391-0.391 1.024-0.391 1.414 0l7.293 7.293 7.293-7.293c0.391-0.391 1.024-0.391 1.414 0s0.39 1.024 0 1.414l-7.293 7.293 7.293 7.293c0.39 0.391 0.39 1.024 0 1.414s-1.024 0.39-1.414 0l-7.293-7.293-7.293 7.293c-0.391 0.39-1.024 0.39-1.414 0s-0.391-1.024 0-1.414l7.293-7.293-7.293-7.293c-0.391-0.391-0.391-1.024 0-1.414z"></path>
</symbol>
<symbol id="icon-check" viewBox="0 0 32 32">
<path fill="#15803d" style="fill: var(--color2, #15803d); stroke: var(--color2, #15803d)" stroke="#15803d" stroke-linejoin="round" stroke-linecap="round" stroke-miterlimit="4" stroke-width="1" d="M26.555 6.168c0.459 0.306 0.584 0.927 0.277 1.387l-12 18c-0.166 0.249-0.435 0.411-0.734 0.44s-0.594-0.076-0.806-0.288l-8-8c-0.391-0.391-0.391-1.024 0-1.414s1.024-0.391 1.414 0l7.137 7.137 11.323-16.985c0.306-0.46 0.927-0.584 1.387-0.277z"></path>
</symbol>
<symbol id="icon-cloud" viewBox="0 0 40 32">
<path d="M16.941 0.471c4.759 0 8.827 2.942 10.491 7.104 0.264-0.030 0.532-0.045 0.803-0.045 3.898 0 7.059 3.16 7.059 7.059 0 0.369-0.028 0.732-0.083 1.086 2.576 1.452 4.319 4.213 4.319 7.384 0 4.678-3.792 8.471-8.471 8.471h-21.176c-5.458 0-9.882-4.424-9.882-9.882 0-3.959 2.327-7.371 5.685-8.949-0.025-0.308-0.038-0.619-0.038-0.933 0-6.238 5.057-11.294 11.294-11.294zM21.176 11.765c0-0.78-0.632-1.412-1.412-1.412s-1.412 0.632-1.412 1.412v9.298l-3.237-3.237c-0.551-0.551-1.445-0.551-1.997 0s-0.551 1.445 0 1.997l5.647 5.647c0.551 0.551 1.445 0.551 1.997 0l5.647-5.647c0.551-0.551 0.551-1.445 0-1.997s-1.445-0.551-1.997 0l-3.237 3.237v-9.298z"></path>
</symbol>
<symbol id="icon-close" viewBox="0 0 32 32">
<path d="M1.074 1.074c0.669-0.669 1.755-0.669 2.424 0l12.502 12.502 12.502-12.502c0.669-0.669 1.755-0.669 2.424 0s0.669 1.755 0 2.424l-12.502 12.502 12.502 12.502c0.669 0.669 0.669 1.755 0 2.424s-1.755 0.669-2.424 0l-12.502-12.502-12.502 12.502c-0.669 0.669-1.755 0.669-2.424 0s-0.669-1.755 0-2.424l12.502-12.502-12.502-12.502c-0.669-0.669-0.669-1.755 0-2.424z"></path>
</symbol>
<symbol id="icon-search" viewBox="0 0 32 32">
<path fill="#637381" style="fill: var(--color3, #637381)" d="M13.778 3.778c-5.523 0-10 4.477-10 10s4.477 10 10 10c2.762 0 5.26-1.118 7.071-2.929s2.929-4.309 2.929-7.071c0-5.523-4.477-10-10-10zM1.556 13.778c0-6.75 5.472-12.222 12.222-12.222s12.222 5.472 12.222 12.222c0 2.975-1.064 5.702-2.83 7.821l6.949 6.949c0.434 0.434 0.434 1.137 0 1.571s-1.137 0.434-1.571 0l-6.949-6.949c-2.119 1.766-4.847 2.83-7.821 2.83-6.75 0-12.222-5.472-12.222-12.222z"></path>
</symbol>
<symbol id="icon-exit" viewBox="0 0 32 32">
<path fill="#f1f5f9" style="fill: var(--color4, #f1f5f9)" d="M10 5c-1.105 0-2 0.895-2 2v18c0 1.105 0.895 2 2 2h8c1.105 0 2-0.895 2-2v-5c0-0.552 0.448-1 1-1s1 0.448 1 1v5c0 2.209-1.791 4-4 4h-8c-2.209 0-4-1.791-4-4v-18c0-2.209 1.791-4 4-4h8c2.209 0 4 1.791 4 4v5c0 0.552-0.448 1-1 1s-1-0.448-1-1v-5c0-1.105-0.895-2-2-2h-8zM16.707 11.293c0.391 0.391 0.391 1.024 0 1.414l-2.293 2.293h14.586c0.552 0 1 0.448 1 1s-0.448 1-1 1h-14.586l2.293 2.293c0.391 0.39 0.391 1.024 0 1.414s-1.024 0.391-1.414 0l-4-4c-0.391-0.391-0.391-1.024 0-1.414l4-4c0.391-0.391 1.024-0.391 1.414 0z"></path>
</symbol>
<symbol id="icon-companies" viewBox="0 0 32 32">
<path fill="#fafafa" style="fill: var(--color5, #fafafa)" d="M9.25 5.875c0-2.485 2.015-4.5 4.5-4.5h4.5c2.485 0 4.5 2.015 4.5 4.5v0.307c1.399 0.128 2.786 0.295 4.161 0.501 2.181 0.326 3.714 2.224 3.714 4.375v4.55c0 1.817-1.1 3.529-2.904 4.128-3.686 1.225-7.627 1.888-11.721 1.888s-8.035-0.663-11.721-1.888c-1.804-0.6-2.904-2.312-2.904-4.128v-4.55c0-2.151 1.533-4.049 3.714-4.375 1.375-0.206 2.762-0.373 4.161-0.501v-0.307zM20.5 5.875v0.136c-1.489-0.090-2.989-0.136-4.5-0.136s-3.011 0.046-4.5 0.136v-0.136c0-1.243 1.007-2.25 2.25-2.25h4.5c1.243 0 2.25 1.007 2.25 2.25zM16 18.25c0.621 0 1.125-0.504 1.125-1.125s-0.504-1.125-1.125-1.125c-0.621 0-1.125 0.504-1.125 1.125s0.504 1.125 1.125 1.125z"></path>
<path fill="#fafafa" style="fill: var(--color5, #fafafa)" d="M2.5 25.6v-4.194c0.335 0.184 0.691 0.34 1.070 0.466 3.912 1.301 8.092 2.003 12.43 2.003s8.519-0.703 12.43-2.003c0.378-0.126 0.735-0.282 1.070-0.466v4.194c0 2.178-1.571 4.091-3.785 4.385-3.179 0.422-6.422 0.64-9.715 0.64s-6.536-0.218-9.715-0.64c-2.214-0.294-3.785-2.207-3.785-4.385z"></path>
</symbol>
<symbol id="icon-dashboard" viewBox="0 0 32 32">
<path fill="#fafafa" style="fill: var(--color5, #fafafa)" d="M0.571 5.714c0-2.84 2.303-5.143 5.143-5.143h3.857c2.84 0 5.143 2.303 5.143 5.143v3.857c0 2.84-2.303 5.143-5.143 5.143h-3.857c-2.84 0-5.143-2.303-5.143-5.143v-3.857zM17.286 5.714c0-2.84 2.303-5.143 5.143-5.143h3.857c2.84 0 5.143 2.303 5.143 5.143v3.857c0 2.84-2.303 5.143-5.143 5.143h-3.857c-2.84 0-5.143-2.303-5.143-5.143v-3.857zM0.571 22.429c0-2.84 2.303-5.143 5.143-5.143h3.857c2.84 0 5.143 2.303 5.143 5.143v3.857c0 2.84-2.303 5.143-5.143 5.143h-3.857c-2.84 0-5.143-2.303-5.143-5.143v-3.857zM17.286 22.429c0-2.84 2.303-5.143 5.143-5.143h3.857c2.84 0 5.143 2.303 5.143 5.143v3.857c0 2.84-2.303 5.143-5.143 5.143h-3.857c-2.84 0-5.143-2.303-5.143-5.143v-3.857z"></path>
</symbol>
</defs>
</svg>
